<svg width="22" height="22" viewBox="0 0 22 22" fill="none" xmlns="http://www.w3.org/2000/svg">
<path d="M11 1C13.6522 1 16.1959 2.05335 18.0713 3.92871C19.9467 5.80407 21 8.34783 21 11C21 13.6522 19.9467 16.1959 18.0713 18.0713C16.1959 19.9467 13.6522 21 11 21C8.34783 21 5.80407 19.9467 3.92871 18.0713C2.05335 16.1959 1 13.6522 1 11C1 8.34784 2.05335 5.80407 3.92871 3.92871C5.80407 2.05335 8.34784 1 11 1ZM17.2871 7.33887C17.9224 5.69556 16.3044 4.07762 14.6611 4.71289L8.46289 7.09766L8.45996 7.09863C7.833 7.34204 7.34204 7.833 7.09863 8.45996L7.09766 8.46289L4.71289 14.6611C4.07768 16.3043 5.69476 17.9209 7.33789 17.2861L13.5371 14.9023L13.54 14.9014C14.1606 14.6605 14.663 14.1713 14.9043 13.5303L17.2861 7.33789L17.2871 7.33887ZM11 10.625C11.0995 10.625 11.1953 10.664 11.2656 10.7344C11.336 10.8047 11.375 10.9005 11.375 11C11.375 11.0995 11.336 11.1953 11.2656 11.2656C11.1953 11.336 11.0995 11.375 11 11.375C10.9005 11.375 10.8047 11.336 10.7344 11.2656C10.664 11.1953 10.625 11.0995 10.625 11C10.625 10.9005 10.664 10.8047 10.7344 10.7344C10.8047 10.664 10.9005 10.625 11 10.625Z" stroke="#F1F1F1" stroke-width="2"/>
</svg>
