<svg width="316" height="168" viewBox="0 0 316 168" fill="none" xmlns="http://www.w3.org/2000/svg"><g clip-path="url(#a)"><path d="M283 159.5a.5.5 0 0 0-.5-.5h-209a.5.5 0 0 0 0 1h209a.5.5 0 0 0 .5-.5zM56 159.5a.5.5 0 0 0-.5-.5H34a.5.5 0 0 0 0 1h21.5a.5.5 0 0 0 .5-.5z" fill="#1F1F1F"/><mask id="b" style="mask-type:alpha" maskUnits="userSpaceOnUse" x="121" y="68" width="73" height="91"><path d="M121 84.36S133.319 68 157.956 68C182.594 68 194 83.337 194 83.337V143c0 8.837-7.163 16-16 16h-41c-8.837 0-16-7.163-16-16V84.36z" fill="#fff"/></mask><g mask="url(#b)"><circle cx="158.5" cy="76.5" r="15" stroke="#1F1F1F"/></g><path d="M121 159.5l.446-130.555c.03-8.815 7.184-15.945 16-15.945H178.5c8.837 0 16 7.164 16 16v85.5" stroke="#1F1F1F"/><path d="M194 39h1a2 2 0 0 1 2 2v9a2 2 0 0 1-2 2h-1V39zM194 60h1a2 2 0 0 1 2 2v6a2 2 0 0 1-2 2h-1V60z" fill="#1F1F1F"/><path d="M158 63.154c-9.931 0-18-8.069-18-18 0-9.93 8.069-18 18-18s18 8.07 18 18c0 9.931-8.069 18-18 18z" stroke="#1F1F1F"/><path d="M146 45c0 6.62 5.379 12 12 12s12-5.38 12-12h-24z" fill="#fff" stroke="#1F1F1F"/><mask id="c" style="mask-type:alpha" maskUnits="userSpaceOnUse" x="139" y="26" width="38" height="38"><path d="M158 63.154c-9.931 0-18-8.069-18-18 0-9.93 8.069-18 18-18s18 8.07 18 18c0 9.931-8.069 18-18 18z" fill="#fff" stroke="#1F1F1F"/></mask><g mask="url(#c)" fill="#1F1F1F"><path d="M176 43.77c-9.931 0-18-8.07-18-18 0-9.931 8.069-18 18-18s18 8.069 18 18c0 9.93-8.069 18-18 18zM140 43.77c-9.931 0-18-8.07-18-18 0-9.931 8.069-18 18-18s18 8.069 18 18c0 9.93-8.069 18-18 18z"/></g><path d="M158.348 22.312a8.631 8.631 0 0 1-8.656-8.656c0-4.8 3.856-8.656 8.656-8.656 4.8 0 8.656 3.856 8.656 8.656 0 4.8-3.856 8.656-8.656 8.656z" fill="#1F1F1F"/><rect x="154.346" y="22.115" width="7.308" height="4.538" rx=".5" stroke="#1F1F1F"/><path d="M171 159l15-36s.5 29 1 31 5 5 5 5h-21z" fill="#000"/><rect x="186.5" y="114.5" width="45" height="45" rx="9.5" stroke="#1F1F1F"/><rect x="209.5" y="69.5" width="45" height="45" rx="9.5" stroke="#1F1F1F"/><rect x="100.5" y="114.5" width="45" height="45" rx="9.5" fill="#fff" stroke="#1F1F1F"/><circle cx="43.696" cy="117.697" r="12" transform="rotate(15 43.696 117.697)" fill="#6DD58C"/><circle cx="67.696" cy="121.697" r="12" transform="rotate(15 67.696 121.697)" fill="#6DD58C"/><path d="M83.055 125.882c2.197-8.2-2.762-16.654-11.077-18.882M54 144.5c0-30.5 6.5-44 6.5-44" stroke="#1F1F1F" stroke-linecap="round"/><rect x="231.5" y="114.5" width="45" height="45" rx="9.5" stroke="#1F1F1F"/><mask id="d" fill="#fff"><path fill-rule="evenodd" clip-rule="evenodd" d="M158.462 68.5c-14.272 0-26.977 6.023-36.603 15.85l-.714-.7c9.794-9.998 22.749-16.15 37.317-16.15 14.082 0 26.713 6.25 36.388 15.641l-.697.718c-9.525-9.247-21.916-15.359-35.691-15.359z"/></mask><path d="M121.859 84.35l-.7.714.714.7.7-.714-.714-.7zm-.714-.7l-.715-.7-.7.715.715.7.7-.715zm73.705-.509l.717.697.697-.718-.717-.696-.697.717zm-.697.718l-.696.717.717.697.697-.718-.718-.696zm-71.58 1.19c9.459-9.655 21.914-15.549 35.889-15.549v-2c-14.568 0-27.523 6.152-37.317 16.15l1.428 1.4zm-2.128-.684l.714.7 1.4-1.43-.715-.7-1.399 1.43zM158.462 66.5c-14.865 0-28.07 6.281-38.032 16.45l1.429 1.4c9.626-9.827 22.331-15.85 36.603-15.85v-2zm37.085 15.924c-9.825-9.537-22.695-15.924-37.085-15.924v2c13.775 0 26.166 6.112 35.691 15.359l1.394-1.435zm-.676 2.131l.696-.717-1.435-1.393-.696.717 1.435 1.393zM158.462 69.5c13.467 0 25.618 5.974 34.995 15.076l1.393-1.435C185.175 73.75 172.544 67.5 158.462 67.5v2z" fill="#1F1F1F" mask="url(#d)"/><path d="M251.222 123.282a4.375 4.375 0 0 1 5.556 0 4.378 4.378 0 0 0 3.038.986 4.379 4.379 0 0 1 4.495 3.267 4.378 4.378 0 0 0 1.877 2.583 4.378 4.378 0 0 1 1.718 5.285 4.37 4.37 0 0 0 0 3.194 4.378 4.378 0 0 1-1.718 5.285 4.378 4.378 0 0 0-1.877 2.583 4.379 4.379 0 0 1-4.495 3.267 4.378 4.378 0 0 0-3.038.986 4.375 4.375 0 0 1-5.556 0 4.378 4.378 0 0 0-3.038-.986 4.379 4.379 0 0 1-4.495-3.267 4.378 4.378 0 0 0-1.877-2.583 4.378 4.378 0 0 1-1.718-5.285 4.37 4.37 0 0 0 0-3.194 4.378 4.378 0 0 1 1.718-5.285 4.378 4.378 0 0 0 1.877-2.583 4.379 4.379 0 0 1 4.495-3.267 4.378 4.378 0 0 0 3.038-.986z" fill="#E46962" filter="url(#e)"/><path d="M221.464 131.917c-4.095 4.093-11.917 5.637-12.471 5.083-.553-.554.991-8.371 5.086-12.465 2.048-2.047 5.354-2.047 7.385 0 2.048 2.047 2.048 5.352 0 7.382z" fill="#6DD58C"/><path d="M196.523 142.083c4.096-4.094 11.917-5.637 12.471-5.084.554.554-.99 8.372-5.086 12.465-2.047 2.047-5.354 2.047-7.385 0-2.031-2.046-2.031-5.351 0-7.381z" fill="#6DD58C"/><path d="M214.079 149.464c-4.095-4.093-5.639-11.911-5.086-12.465.554-.553 8.376.99 12.471 5.084 2.048 2.046 2.048 5.351 0 7.381-2.031 2.047-5.337 2.047-7.385 0z" fill="#6DD58C"/><path d="M203.924 124.535c4.096 4.093 5.64 11.911 5.086 12.465-.554.553-8.375-.99-12.471-5.084-2.047-2.046-2.047-5.351 0-7.381 2.048-2.03 5.338-2.047 7.385 0z" fill="#6DD58C"/><path d="M99.69 57.35a.5.5 0 1 0 .222-.976l-.221.975zM81.38 37.04l.497.044-.498-.045zm-23.265-3.21a.5.5 0 1 0-.537.844l.537-.843zm41.797 22.544c-3.243-.736-8.048-2.598-11.892-5.772-3.834-3.166-6.675-7.599-6.143-13.518l-.996-.09c-.57 6.345 2.5 11.074 6.502 14.379 3.993 3.297 8.951 5.214 12.308 5.976l.221-.975zm-18.035-19.29c.669-7.426 5.805-12.075 11.365-13.57 5.588-1.504 11.436.197 13.681 5.267l.914-.405c-2.514-5.677-8.977-7.41-14.855-5.828-5.905 1.589-11.39 6.544-12.1 14.447l.995.09zm25.046-8.303c1.101 2.488.626 5.25-1.252 7.74-1.883 2.496-5.171 4.7-9.616 5.969-8.88 2.535-22.305 1.315-37.94-8.66l-.537.844c15.817 10.09 29.537 11.408 38.751 8.777 4.602-1.313 8.097-3.619 10.141-6.329 2.049-2.716 2.645-5.86 1.367-8.746l-.914.405z" fill="#1F1F1F"/><path d="M63.65 63.552c2.752-3.403 7.948-3.403 10.7 0a6.929 6.929 0 0 0 5.248 2.569c4.333.066 7.573 4.196 6.672 8.505a7.177 7.177 0 0 0 1.296 5.772c2.65 3.485 1.494 8.635-2.381 10.606-1.808.92-3.152 2.632-3.631 4.629-1.028 4.28-5.71 6.572-9.642 4.72a6.868 6.868 0 0 0-5.824 0c-3.932 1.852-8.614-.44-9.642-4.72-.48-1.997-1.823-3.71-3.63-4.629-3.876-1.97-5.033-7.121-2.382-10.606a7.177 7.177 0 0 0 1.296-5.772c-.901-4.309 2.34-8.44 6.672-8.505a6.929 6.929 0 0 0 5.247-2.57z" stroke="#1F1F1F"/><circle cx="69" cy="81" r="4.5" fill="#E1E3E1" stroke="#1F1F1F" stroke-linecap="round"/><path d="M218 78a23.679 23.679 0 0 0 28 0 23.68 23.68 0 0 0 0 28 23.679 23.679 0 0 0-28 0 23.68 23.68 0 0 0 0-28z" fill="#7FCFFF"/><path fill-rule="evenodd" clip-rule="evenodd" d="M122.999 148.694a8.234 8.234 0 0 0 5.722 2.306c4.572 0 8.279-3.723 8.279-8.316a8.307 8.307 0 0 0-2.235-5.683 8.31 8.31 0 0 0 2.235-5.683c0-4.593-3.707-8.316-8.279-8.316a8.232 8.232 0 0 0-5.721 2.304 8.232 8.232 0 0 0-5.722-2.306c-4.572 0-8.279 3.723-8.279 8.316 0 2.198.849 4.196 2.235 5.683a8.31 8.31 0 0 0-2.235 5.683c0 4.593 3.707 8.317 8.279 8.317a8.232 8.232 0 0 0 5.721-2.305z" fill="#FFBB29"/><path d="M47.494 37l-.994-3.778a9.456 9.456 0 0 0-6.722-6.722L36 25.506l3.778-.994A9.456 9.456 0 0 0 46.5 17.79l.994-3.79.993 3.778A9.456 9.456 0 0 0 55.21 24.5L59 25.506l-3.778.994a9.456 9.456 0 0 0-6.722 6.722L47.494 37z" fill="#1F1F1F"/><path d="M265 79c0-11.598-9.402-21-21-21" stroke="#1F1F1F" stroke-linecap="round"/><mask id="f" maskUnits="userSpaceOnUse" x="39" y="144" width="30" height="16" fill="#000"><path fill="#fff" d="M39 144h30v16H39z"/><path d="M68 159a13.998 13.998 0 0 0-14-14 13.998 13.998 0 0 0-14 14h28z"/></mask><path d="M68 159a13.998 13.998 0 0 0-14-14 13.998 13.998 0 0 0-14 14h28z" stroke="#1F1F1F" stroke-width="2" stroke-linecap="round" mask="url(#f)"/></g><defs><filter id="e" x="236.085" y="118.58" width="35.829" height="36.839" filterUnits="userSpaceOnUse" color-interpolation-filters="sRGB"><feFlood flood-opacity="0" result="BackgroundImageFix"/><feGaussianBlur in="BackgroundImageFix" stdDeviation="1.853"/><feComposite in2="SourceAlpha" operator="in" result="effect1_backgroundBlur_8336_85962"/><feBlend in="SourceGraphic" in2="effect1_backgroundBlur_8336_85962" result="shape"/></filter><clipPath id="a"><path fill="#fff" d="M0 0h316v168H0z"/></clipPath></defs></svg>