<svg width="50" height="66" viewBox="0 0 50 66" fill="none" xmlns="http://www.w3.org/2000/svg">
<path d="M22.917 2.5H27.083C29.1766 2.5 30.833 4.17582 30.833 6.1875V19H43.75C45.8436 19 47.5 20.6758 47.5 22.6875V26.8125C47.5 28.8242 45.8436 30.5 43.75 30.5H30.833V59.8125C30.833 61.8242 29.1766 63.5 27.083 63.5H22.917C20.8234 63.5 19.167 61.8242 19.167 59.8125V30.5H6.25C4.15644 30.5 2.5 28.8242 2.5 26.8125V22.6875C2.5 20.6758 4.15644 19 6.25 19H19.167V6.1875C19.167 4.17582 20.8234 2.5 22.917 2.5Z" fill="#08D9E1" stroke="#08D9E1" stroke-width="5"/>
</svg>
