<svg width="22" height="22" viewBox="0 0 22 22" fill="none" xmlns="http://www.w3.org/2000/svg">
<path d="M21.9942 10.9764C21.9942 11.7497 21.4212 12.3554 20.7717 12.3554H19.5492L19.5759 19.2376C19.5759 19.3536 19.5683 19.4696 19.5568 19.5856V20.2816C19.5568 21.231 18.8729 22 18.0286 22H17.4174C17.3753 22 17.3333 22 17.2913 21.9957C17.2378 22 17.1843 22 17.1308 22L15.8892 21.9957H14.9723C14.128 21.9957 13.4441 21.2267 13.4441 20.2773V19.2462V16.4968C13.4441 15.122 13.4441 15.122 12.2216 15.122H9.77649C8.55395 15.122 8.55395 15.122 8.55395 16.4968V19.2462V20.2773C8.55395 21.2267 7.87009 21.9957 7.02577 21.9957H6.10887H4.89015C4.83285 21.9957 4.77554 21.9914 4.71823 21.9871C4.67239 21.9914 4.62654 21.9957 4.5807 21.9957H3.96943C3.12511 21.9957 2.44126 21.2267 2.44126 20.2773V15.4657C2.44126 15.4271 2.44126 15.3841 2.44508 15.3454V12.3511H1.22254C0.53486 12.3511 0 11.7497 0 10.9721C0 10.5854 0.114613 10.2417 0.382043 9.94103L10.1738 0.343683C10.4412 0.0429604 10.7469 0 11.0143 0C11.2817 0 11.5874 0.0859207 11.8166 0.300722L21.574 9.94532C21.8796 10.246 22.0324 10.5897 21.9942 10.9764Z" fill="#F1F1F1"/>
</svg>
