<svg width="60" height="66" viewBox="0 0 60 66" fill="none" xmlns="http://www.w3.org/2000/svg">
<path d="M30.2783 5.94727C30.9259 7.17527 31.5979 8.43969 32.1504 9.46094C32.5973 10.287 33.0366 11.0801 33.3096 11.5186C33.7308 12.3268 34.5108 13.456 35.959 13.7754C37.2991 14.0709 38.4107 13.4773 39.0059 13.0957C39.0763 13.0596 39.1513 13.0202 39.2305 12.9785C39.0576 13.7495 38.8767 14.5578 38.6963 15.373C38.2512 17.3845 37.8039 19.4478 37.4668 21.0938C37.2986 21.915 37.1544 22.6479 37.0518 23.2236C36.9883 23.5796 36.9103 24.0312 36.877 24.417C36.6035 25.9405 37.2062 27.5012 38.5537 28.3535C40.0237 29.2832 41.8017 29.034 43.1279 28.0381L43.249 27.9473L43.3594 27.8418C43.535 27.673 44.1249 27.008 44.7422 26.3115C45.4252 25.541 46.3039 24.5444 47.1709 23.5596C47.4712 23.2185 47.7694 22.8777 48.0586 22.5488C48.2136 22.8804 48.341 23.1515 48.416 23.3018C48.5144 23.4989 48.8956 24.3509 49.6221 24.9521C50.0552 25.3105 50.6098 25.593 51.2754 25.6934C51.8582 25.7812 52.4046 25.7096 52.8828 25.5732C53.383 25.4488 54.6932 25.1623 56.0967 24.8604C55.5199 26.8004 54.9256 28.793 54.7432 29.3818C54.5942 29.7401 54.2398 30.6412 54.3389 31.6338C54.4385 32.6314 54.9138 33.4094 55.5664 33.9873C54.4337 34.9807 53.07 36.1775 51.6992 37.3809C48.4287 40.252 44.9274 43.3285 44.6865 43.5693C44.6346 43.6213 44.5869 43.6656 44.4912 43.7568C44.4096 43.8346 44.2886 43.9514 44.1641 44.085C43.9032 44.3648 43.5652 44.7851 43.3291 45.376C42.8417 46.5961 43.0494 47.8547 43.4395 49.0264C43.486 49.1662 43.5305 49.311 43.5771 49.458C42.8642 49.3064 42.1021 49.145 41.3311 48.9805C38.0693 48.2847 34.7504 47.5703 34.1611 47.4229L33.9854 47.3789L33.8057 47.3604L33.4561 47.3359C32.6156 47.2998 31.615 47.4319 30.7061 47.9473C30.4507 48.0921 30.2129 48.2642 29.9951 48.459C29.7797 48.2671 29.5455 48.0975 29.2959 47.9551C28.2668 47.3681 27.1146 47.2669 26.2021 47.3613L26.0273 47.3789L25.8574 47.4219C25.258 47.5704 21.9316 48.2852 18.6709 48.9805C17.9029 49.1442 17.144 49.3051 16.4336 49.4561C16.4793 49.3147 16.5236 49.1756 16.5693 49.041L16.5742 49.0264L16.5781 49.0117C16.9583 47.8465 17.1633 46.5916 16.6777 45.376C16.4414 44.7844 16.1023 44.3632 15.8369 44.0801C15.7101 43.9448 15.5869 43.8271 15.502 43.7471C15.4017 43.6527 15.3535 43.6083 15.2959 43.5518L15.2793 43.5352L14.5576 42.8906C13.3346 41.8079 10.7668 39.5512 8.29688 37.3818C6.92402 36.176 5.55803 34.9771 4.4248 33.9824C5.07901 33.4073 5.56044 32.6306 5.66113 31.627C5.76163 30.625 5.39605 29.7082 5.25488 29.3662C5.08211 28.827 4.48307 26.8257 3.89648 24.8477C5.28737 25.147 6.59155 25.4316 7.10938 25.5586C7.58945 25.6964 8.1387 25.769 8.72461 25.6807C9.39036 25.5803 9.94471 25.297 10.3779 24.9385C11.1042 24.3374 11.4854 23.4865 11.584 23.2891C11.6584 23.14 11.7835 22.8706 11.9375 22.542C12.2279 22.8719 12.5285 23.2134 12.8301 23.5557C14.5054 25.4572 16.3696 27.5704 16.6045 27.8057L16.7344 27.9355L16.8818 28.0449C18.2044 29.0282 19.9806 29.2875 21.4551 28.3516C22.8054 27.4943 23.393 25.9327 23.123 24.4209C23.0899 24.0343 23.0119 23.5808 22.9482 23.2236C22.8456 22.6479 22.7014 21.915 22.5332 21.0938C22.1961 19.4478 21.7488 17.3845 21.3037 15.373C21.1233 14.5577 20.9415 13.7495 20.7686 12.9785C20.8485 13.0205 20.9241 13.0603 20.9951 13.0967C21.582 13.4702 22.7016 14.0734 24.0479 13.7754C25.5033 13.453 26.2793 12.3101 26.6943 11.5107C26.9583 11.0813 27.3939 10.2905 27.8428 9.45605C28.3918 8.43557 29.061 7.17124 29.7061 5.94336C29.8019 5.76099 29.8958 5.57854 29.9902 5.39844C30.0857 5.57986 30.1814 5.76354 30.2783 5.94727Z" fill="#FF7B00" stroke="#FF7B00" stroke-width="5"/>
</svg>
