<?xml version="1.0" encoding="UTF-8"?>
<svg id="Layer_2" data-name="Layer 2" xmlns="http://www.w3.org/2000/svg" viewBox="0 0 706.38 203.86">
  <defs>
    <style>
      .cls-1 {
        fill: #f1f1f1;
      }
    </style>
  </defs>
  <g id="Layer_2-2" data-name="Layer 2">
    <g id="LyriGO">
      <g>
        <path class="cls-1" d="m0,163.29L27.84,24.06h0c21.2,0,37.11,19.39,32.97,40.18l-12.48,62.64h37.31c16.28,0,28.49,14.92,25.26,30.88l-1.12,5.52H0Z"/>
        <path class="cls-1" d="m243.98,60.42l-63.25,105.05c-5.96,9.94-11.8,17.7-17.5,23.27-5.7,5.57-11.83,9.48-18.4,11.73-6.56,2.25-14.02,3.38-22.37,3.38-5.97,0-11.9-.87-17.8-2.58l-15.58-4.58,15.56-24.92c2.7-4.33,8.09-6.13,12.86-4.31,1.39.53,2.81.93,4.28,1.19,1.46.27,2.95.4,4.47.4,3.58,0,6.49-.83,8.75-2.49.8-.6,1.59-1.29,2.37-2.1l-23.81-109.85c-.02-.07.03-.13.1-.13h38.38c3.62,0,6.72,2.57,7.4,6.13l9.95,52.36,32.04-54.75c1.35-2.31,3.83-3.73,6.51-3.73h32.71c3.04,0,4.92,3.32,3.35,5.93Z"/>
        <path class="cls-1" d="m332.67,52.51s-.01.07-.02.11c-.02.1-.04.21-.07.32-.03.17-.07.34-.1.51-.04.23-.09.46-.14.69-.06.29-.11.57-.17.87-.07.33-.14.67-.2,1.01-.08.38-.16.77-.24,1.16-.08.43-.17.85-.25,1.28-.09.47-.19.93-.28,1.39-.1.5-.2,1-.3,1.5-.1.53-.21,1.05-.32,1.58-.11.55-.22,1.11-.33,1.66-.11.57-.23,1.14-.35,1.71-.11.59-.24,1.17-.35,1.76-.12.6-.24,1.2-.36,1.8-.12.6-.24,1.2-.36,1.81-.12.6-.24,1.21-.36,1.82-.12.6-.24,1.2-.36,1.81-.12.6-.24,1.19-.36,1.79-.11.58-.23,1.17-.35,1.75-.11.56-.22,1.13-.34,1.7-.11.55-.22,1.1-.33,1.64-.1.52-.21,1.05-.31,1.57-.1.49-.2.99-.3,1.48-.09.46-.19.91-.27,1.37-.09.42-.17.84-.25,1.26-.08.38-.15.76-.23,1.13-.07.33-.13.66-.2.99-.05.27-.11.55-.16.83-.04.22-.09.44-.13.66-.31,1.56-4.18.32-5.24.23-1.52-.13-3.08-.2-4.67-.2-7.43,0-13.43,1.66-18,4.97-4.58,3.32-7.66,8.82-9.25,16.51l-10.15,50.32h-44.95l13.4-67.24c4.81-24.15,22.11-41.65,46.73-41.65l-1.02,13.99c3.72-4.47,8.19-7.91,13.38-10.31,8.02-3.71,17.2-5.57,27.54-5.57Z"/>
        <path class="cls-1" d="m321.34,163.29l13.59-66.92c5.18-25.52,27.62-43.86,53.65-43.86h0l-22.49,110.78h-44.75Zm48.93-117.54c-7.82,0-14.02-2.05-18.6-6.16-4.57-4.11-6.86-9.15-6.86-15.12,0-7.03,2.62-12.86,7.86-17.5,5.24-4.64,12.16-6.96,20.78-6.96,12.38,0,20.7,4.82,24.93,14.44,1.71,10.24-.73,18.32-7.33,24.25-5.24,4.71-12.17,7.06-20.78,7.06Z"/>
      </g>
      <g>
        <path class="cls-1" d="m618.67,166.47c-14.45,0-26.95-2.65-37.49-7.96-10.54-5.3-18.7-12.63-24.46-21.98-5.77-9.35-8.65-20.12-8.65-32.32s2.15-23.57,6.46-33.71c4.31-10.14,10.37-18.92,18.2-26.35,7.82-7.42,17.1-13.16,27.84-17.2,10.74-4.04,22.47-6.07,35.2-6.07,14.45,0,26.95,2.65,37.49,7.96,10.54,5.31,18.69,12.63,24.46,21.98,5.77,9.35,8.65,20.12,8.65,32.32s-2.16,23.57-6.46,33.71c-4.31,10.14-10.38,18.93-18.2,26.35-7.82,7.43-17.11,13.16-27.84,17.2-10.74,4.04-22.47,6.07-35.2,6.07Zm3.98-37.99c5.83,0,10.97-1.12,15.41-3.38,4.44-2.25,8.25-5.37,11.44-9.35,3.18-3.98,5.57-8.52,7.16-13.62,1.59-5.1,2.39-10.51,2.39-16.21s-1.09-10.17-3.28-14.22c-2.19-4.04-5.3-7.19-9.35-9.45-4.05-2.25-8.92-3.38-14.62-3.38s-10.81,1.13-15.32,3.38c-4.51,2.26-8.35,5.37-11.53,9.35-3.18,3.98-5.57,8.52-7.16,13.62-1.59,5.1-2.39,10.51-2.39,16.21,0,5.3,1.09,10.01,3.28,14.12,2.19,4.11,5.3,7.29,9.35,9.55,4.04,2.26,8.91,3.38,14.62,3.38Z"/>
        <path class="cls-1" d="m534.94,89.89l-11.93,60.07c-7.29,5.31-15.78,9.38-25.46,12.23-9.68,2.85-20.02,4.28-31.03,4.28-14.32,0-26.85-2.62-37.59-7.86-10.74-5.24-19.06-12.53-24.96-21.88-5.9-9.35-8.85-20.18-8.85-32.51s2.15-23.4,6.46-33.61c4.31-10.21,10.44-19.02,18.4-26.45,7.96-7.42,17.4-13.16,28.34-17.2,10.94-4.04,23.04-6.07,36.3-6.07,14.58,0,27.15,2.29,37.69,6.87,10.54,4.57,19.06,11.37,25.55,20.39l-33.61,26.05c-4.51-5.83-9.28-9.85-14.32-12.04-5.04-2.18-10.87-3.28-17.5-3.28-6.1,0-11.6,1.03-16.51,3.08-4.91,2.06-9.12,4.97-12.63,8.75-3.52,3.78-6.2,8.26-8.05,13.43-1.86,5.17-2.79,10.87-2.79,17.11,0,5.44,1.23,10.21,3.68,14.32,2.45,4.11,5.97,7.29,10.54,9.54,4.58,2.26,10.05,3.38,16.41,3.38,4.59,0,9.19-.67,13.79-2.02l4.4-22.07h-22.69v-14.5h66.35Z"/>
      </g>
    </g>
  </g>
</svg>