<svg width="27" height="38" viewBox="0 0 27 38" fill="none" xmlns="http://www.w3.org/2000/svg">
<path d="M19.4684 28.914C18.284 23.907 18.5263 15.1629 18.7954 11.4166C20.4106 0.00297737 22.4744 6.66094 23.3044 11.4166C24.8118 19.2231 23.6633 26.1996 22.9006 28.7121C21.5546 34.5266 20.0517 31.2694 19.4684 28.914Z" fill="#F1F1F1"/>
<path d="M25.2303 22.6877C24.793 20.8312 24.8824 17.589 24.9818 16.2C25.5782 11.968 26.3403 14.4366 26.6468 16.2C27.2034 19.0945 26.7793 21.6812 26.4977 22.6128C26.0007 24.7687 25.4457 23.561 25.2303 22.6877Z" fill="#F1F1F1"/>
<path d="M1.68885 22.6877C2.12621 20.8312 2.03675 17.589 1.93735 16.2C1.34095 11.968 0.578885 14.4366 0.272401 16.2C-0.28424 19.0945 0.139867 21.6812 0.421501 22.6128C0.918502 24.7687 1.47349 23.561 1.68885 22.6877Z" fill="#F1F1F1"/>
<path d="M7.39999 28.914C8.58442 23.907 8.34215 15.1629 8.07296 11.4166C6.45782 0.00297737 4.39403 6.66094 3.56403 11.4166C2.05657 19.2231 3.20511 26.1996 3.96782 28.7121C5.31377 34.5266 6.81674 31.2694 7.39999 28.914Z" fill="#F1F1F1"/>
<path d="M10.0374 9.24502C13.0523 -7.4986 16.0044 2.26851 17.1036 9.24502C18.1265 16.6747 17.8887 24.0056 17.642 26.7424C13.8715 46.3006 11.045 33.6712 9.56449 26.246C8.61175 21.4679 9.54385 11.578 10.0374 9.24502Z" fill="#F1F1F1"/>
</svg>
