<svg width="42" height="42" viewBox="0 0 42 42" fill="none" xmlns="http://www.w3.org/2000/svg">
<path d="M23.6445 30.1973L24.6768 30.2109C33.1163 30.4328 33.9654 33.4376 33.9971 37.4932C30.4216 40.3146 25.9081 42 21 42C16.0923 42 11.5782 40.3161 8.00293 37.4951C8.05531 33.4311 8.95559 30.4087 17.3262 30.208L18.3496 30.1973H23.6445ZM21 0C32.598 0 42 9.40202 42 21C42 27.2294 39.2866 32.8241 34.9785 36.6699C34.9734 36.5494 34.9685 36.4301 34.9609 36.3125C34.8789 35.0331 34.6385 33.7475 33.9297 32.626C32.4702 30.3168 29.3803 29.1973 23.6445 29.1973H18.3496C12.6605 29.1823 9.5773 30.3035 8.10547 32.6113C7.39066 33.7322 7.13848 35.0183 7.04785 36.3018C7.03918 36.4246 7.03237 36.5491 7.02637 36.6748C2.71525 32.8289 0 27.2319 0 21C0 9.40202 9.40202 0 21 0ZM20.9971 10C18.7719 10 16.6333 10.8658 15.0537 12.4131C13.4736 13.9609 12.5821 16.0647 12.582 18.2627C12.582 20.4609 13.4734 22.5654 15.0537 24.1133C16.6333 25.6605 18.7719 26.5254 20.9971 26.5254C23.222 26.5254 25.3599 25.6603 26.9395 24.1133C28.5198 22.5654 29.4121 20.4609 29.4121 18.2627C29.412 16.0646 28.5197 13.961 26.9395 12.4131C25.3599 10.8659 23.2222 10 20.9971 10ZM21.3643 11.0088C23.1971 11.0978 24.9365 11.85 26.2402 13.127L26.4941 13.3887C27.7254 14.7209 28.412 16.4571 28.4121 18.2627L28.4023 18.623C28.3114 20.4181 27.5438 22.1215 26.2402 23.3984L25.9736 23.6465C24.6134 24.853 22.8408 25.5254 20.9971 25.5254L20.6289 25.5166C18.7963 25.4275 17.0575 24.6753 15.7539 23.3984C14.4503 22.1215 13.6817 20.4182 13.5908 18.623L13.582 18.2627C13.5821 16.4571 14.2686 14.7209 15.5 13.3887L15.7539 13.127C17.1445 11.765 19.0306 11 20.9971 11L21.3643 11.0088Z" fill="#08D9E1"/>
</svg>
