<svg width="32" height="34" viewBox="0 0 32 34" fill="none" xmlns="http://www.w3.org/2000/svg">
<path d="M17.5295 1.17072C17.2121 0.455281 16.5415 0 15.805 0C15.0685 0 14.4039 0.455281 14.0805 1.17072L10.2304 9.77553L1.63204 11.1544C0.913515 11.2714 0.314742 11.8178 0.0931958 12.5657C-0.12835 13.3137 0.0512815 14.1397 0.566226 14.6926L6.80544 21.3982L5.33246 30.8745C5.21271 31.655 5.51209 32.4485 6.10488 32.9103C6.69766 33.3721 7.48206 33.4306 8.12873 33.0599L15.811 28.6046L23.4932 33.0599C24.1399 33.4306 24.9243 33.3786 25.5171 32.9103C26.1099 32.442 26.4093 31.655 26.2895 30.8745L24.8105 21.3982L31.0498 14.6926C31.5647 14.1397 31.7503 13.3137 31.5228 12.5657C31.2953 11.8178 30.7025 11.2714 29.9839 11.1544L21.3796 9.77553L17.5295 1.17072Z" fill="#FFF200"/>
</svg>
