<svg width="58" height="66" viewBox="0 0 58 66" fill="none" xmlns="http://www.w3.org/2000/svg">
<path d="M34.2119 60.25C33.9339 60.8268 33.5595 61.3585 33.0977 61.8184C32.0179 62.8933 30.544 63.5 28.9971 63.5C27.4502 63.5 25.9763 62.8934 24.8965 61.8184C24.4346 61.3585 24.0602 60.8268 23.7822 60.25H34.2119ZM28.9971 2.5C29.918 2.5 30.6396 3.23421 30.6396 4.125V8.64551L32.6455 9.05078C40.9595 10.7293 47.2109 18.0555 47.2109 26.8125V29.2363C47.211 35.9255 49.6797 42.3552 54.123 47.3467L54.1279 47.3525L55.0859 48.4219L55.0879 48.4238C55.516 48.9008 55.6189 49.5816 55.3584 50.1553C55.0897 50.7469 54.5017 51.125 53.8535 51.125H4.14062C3.48016 51.125 2.89549 50.7373 2.64355 50.1719C2.37747 49.5745 2.48976 48.889 2.90723 48.4238L2.9082 48.4219L3.86621 47.3525L3.87109 47.3467C8.31492 42.3547 10.7831 35.912 10.7832 29.2363V26.8125C10.7832 18.0555 17.0347 10.7293 25.3486 9.05078L27.3545 8.64551V4.125C27.3545 3.23423 28.0762 2.50004 28.9971 2.5Z" fill="#FFCC00" stroke="#FFCC00" stroke-width="5"/>
</svg>
